# xmcd
#
# Track frame offsets: 
#        150
#        16613
#        39116
#        63613
#        108474
#        136107
#        150465
#        164274
#        179100
#        205169
#        259221
#
# Disc length: 3695 seconds
#
# Revision: 0
# Processed by: cddbd v1.5.2PL0 Copyright (c) Steve Scherf et al.
# Submitted via: ExactAudioCopy v0.95b3
#
DISCID=8c0e6d0b
DTITLE=The Stooges and MC5  - Soldier Field - Chicago, IL 1970-07-18  Fl
DTITLE=ac
DYEAR=1900
DGENRE=
TTITLE0=Loose
TTITLE1=Down On The Street
TTITLE2=1970
TTITLE3=(The Shadow Of Your Smile) > Fun House
TTITLE4=L.A. Blues
TTITLE5=Mc5 - Ramblin' Rose
TTITLE6=Mc5 - Tonight
TTITLE7=Mc5 - Rama Lama Fa Fa Fa (Rocket Reducer no. 62)
TTITLE8=Mc5 - Looking At You
TTITLE9=Mc5 - I Want You Right Now
TTITLE10=Mc5 - Black To Comm
EXTD=
EXTT0=
EXTT1=
EXTT2=
EXTT3=
EXTT4=
EXTT5=
EXTT6=
EXTT7=
EXTT8=
EXTT9=
EXTT10=
PLAYORDER=
